<svg width="18" height="18" viewBox="0 0 18 18" fill="none" xmlns="http://www.w3.org/2000/svg">
<path d="M6.18723 13.5H11.8122V14.625H6.18723V13.5ZM7.31223 15.75H10.6872V16.875H7.31223V15.75ZM8.99973 1.125C7.50789 1.125 6.07715 1.71763 5.02225 2.77252C3.96736 3.82742 3.37473 5.25816 3.37473 6.75C3.33669 7.5675 3.49329 8.38235 3.83164 9.12752C4.17 9.87268 4.68044 10.5269 5.32098 11.0363C5.88348 11.5594 6.18723 11.8575 6.18723 12.375H7.31223C7.31223 11.34 6.68785 10.7606 6.08035 10.2037C5.55462 9.80115 5.13562 9.27578 4.86005 8.67366C4.58449 8.07154 4.46077 7.41104 4.49973 6.75C4.49973 5.55653 4.97383 4.41193 5.81775 3.56802C6.66166 2.72411 7.80625 2.25 8.99973 2.25C10.1932 2.25 11.3378 2.72411 12.1817 3.56802C13.0256 4.41193 13.4997 5.55653 13.4997 6.75C13.538 7.41152 13.4135 8.07234 13.1369 8.6745C12.8603 9.27666 12.4402 9.80176 11.9135 10.2037C11.3116 10.7662 10.6872 11.3287 10.6872 12.375H11.8122C11.8122 11.8575 12.1104 11.5594 12.6785 11.0306C13.3186 10.5221 13.8288 9.86889 14.1671 9.12471C14.5055 8.38052 14.6623 7.56663 14.6247 6.75C14.6247 6.01131 14.4792 5.27986 14.1966 4.59741C13.9139 3.91495 13.4995 3.29485 12.9772 2.77252C12.4549 2.25019 11.8348 1.83586 11.1523 1.55318C10.4699 1.27049 9.73841 1.125 8.99973 1.125Z" fill="#99A1AF"/>
</svg>
