<svg width="20" height="20" viewBox="0 0 20 20" fill="none" xmlns="http://www.w3.org/2000/svg">
<path d="M12.4997 15H8.33301" stroke="#99A1AF" stroke-width="1.66667" stroke-linecap="round" stroke-linejoin="round"/>
<path d="M14.9997 11.667H8.33301" stroke="#99A1AF" stroke-width="1.66667" stroke-linecap="round" stroke-linejoin="round"/>
<path d="M3.33366 18.3337H16.667C17.109 18.3337 17.5329 18.1581 17.8455 17.8455C18.1581 17.5329 18.3337 17.109 18.3337 16.667V3.33366C18.3337 2.89163 18.1581 2.46771 17.8455 2.15515C17.5329 1.84259 17.109 1.66699 16.667 1.66699H6.66699C6.22496 1.66699 5.80104 1.84259 5.48848 2.15515C5.17592 2.46771 5.00033 2.89163 5.00033 3.33366V16.667C5.00033 17.109 4.82473 17.5329 4.51217 17.8455C4.19961 18.1581 3.77569 18.3337 3.33366 18.3337ZM3.33366 18.3337C2.89163 18.3337 2.46771 18.1581 2.15515 17.8455C1.84259 17.5329 1.66699 17.109 1.66699 16.667V9.16699C1.66699 8.72496 1.84259 8.30104 2.15515 7.98848C2.46771 7.67592 2.89163 7.50033 3.33366 7.50033H5.00033" stroke="#99A1AF" stroke-width="1.66667" stroke-linecap="round" stroke-linejoin="round"/>
<path d="M14.1663 5H9.16634C8.7061 5 8.33301 5.3731 8.33301 5.83333V7.5C8.33301 7.96024 8.7061 8.33333 9.16634 8.33333H14.1663C14.6266 8.33333 14.9997 7.96024 14.9997 7.5V5.83333C14.9997 5.3731 14.6266 5 14.1663 5Z" stroke="#99A1AF" stroke-width="1.66667" stroke-linecap="round" stroke-linejoin="round"/>
</svg>
