<svg width="16" height="16" viewBox="0 0 16 16" fill="none" xmlns="http://www.w3.org/2000/svg">
<path d="M4.66671 0.666687V2.00002H2.00004C1.63185 2.00002 1.33337 2.2985 1.33337 2.66669V13.3334C1.33337 13.7016 1.63185 14 2.00004 14H7.16977C6.43785 13.087 6.00004 11.928 6.00004 10.6667C6.00004 7.72115 8.38784 5.33335 11.3334 5.33335C12.5946 5.33335 13.7536 5.77117 14.6667 6.50311V2.66669C14.6667 2.2985 14.3682 2.00002 14 2.00002H11.3334V0.666687H10V2.00002H6.00004V0.666687H4.66671ZM15.3334 10.6667C15.3334 12.8758 13.5425 14.6667 11.3334 14.6667C9.12424 14.6667 7.33337 12.8758 7.33337 10.6667C7.33337 8.45755 9.12424 6.66669 11.3334 6.66669C13.5425 6.66669 15.3334 8.45755 15.3334 10.6667ZM10.6667 8.00002V10.9428L12.1953 12.4714L13.1381 11.5286L12 10.3906V8.00002H10.6667Z" fill="#7D92FE"/>
</svg>
