<svg width="16" height="16" viewBox="0 0 16 16" fill="none" xmlns="http://www.w3.org/2000/svg">
<g clip-path="url(#clip0_998_3614)">
<path d="M12.761 0.989159C12.9639 0.882516 13.2146 0.960221 13.3216 1.16299L15.0432 4.42568C15.1506 4.62907 15.0723 4.88153 14.8684 4.98818L11.2366 6.88857C10.5238 7.25654 10.1937 8.05915 10.4085 8.78799C11.018 10.8563 10.1843 13.2073 8.16727 14.3612C6.61408 15.2495 4.79222 15.1934 3.35379 14.3729L3.03055 14.6962C2.54667 15.1797 1.75945 15.1798 1.27566 14.6962C0.790491 14.2113 0.790659 13.4262 1.27566 12.9413L1.58816 12.6298C0.168171 10.2285 1.05424 7.15977 3.49734 5.87197L5.79324 4.66103C5.99634 4.55379 6.24792 4.63191 6.35477 4.83486L6.79227 5.66689L8.26492 4.89346L7.82645 4.05947C7.71966 3.85647 7.79736 3.60588 8.00027 3.49892L12.761 0.989159ZM1.86356 13.5292C1.70341 13.6893 1.70347 13.9482 1.86356 14.1083C2.02349 14.268 2.28371 14.2681 2.44363 14.1083L2.66043 13.8915C2.45235 13.7183 2.25707 13.5259 2.07742 13.3153L1.86356 13.5292ZM8.21316 8.8417C7.52044 7.49927 5.85441 6.98727 4.4827 7.72256C3.12694 8.44934 2.58677 10.1318 3.27859 11.4726C3.97139 12.8148 5.63802 13.3264 7.00906 12.5917C8.36476 11.8649 8.90493 10.1825 8.21316 8.8417ZM4.74637 8.49014C5.73899 7.95852 6.93322 8.32373 7.42801 9.28213C7.92807 10.2512 7.53061 11.4704 6.54227 11.9999C5.54633 12.5333 4.35371 12.163 3.86063 11.2079C3.36054 10.2388 3.758 9.01969 4.74637 8.49014ZM4.15652 3.14541L5.41141 3.41787C5.63556 3.46664 5.77748 3.68779 5.72879 3.91201C5.68651 4.10651 5.51474 4.23914 5.32352 4.23916C5.26089 4.23916 5.34527 4.25425 3.98074 3.95791C3.75652 3.90921 3.61368 3.68704 3.66238 3.46279C3.71126 3.23888 3.93247 3.09688 4.15652 3.14541ZM5.36648 1.1708C5.56947 1.06401 5.82009 1.14175 5.92703 1.34463L6.54129 2.5126C6.64799 2.71562 6.57042 2.9663 6.36746 3.07314C6.16449 3.17999 5.91287 3.10248 5.80594 2.89932L5.19168 1.73135C5.0852 1.52835 5.16356 1.27756 5.36648 1.1708ZM7.6868 1.27529C7.77374 1.06297 8.0164 0.961769 8.22879 1.04873C8.44115 1.13569 8.54328 1.37836 8.45633 1.59072L7.96219 2.7958C7.8752 3.0083 7.63236 3.11029 7.4202 3.02334C7.208 2.93637 7.10682 2.69363 7.19363 2.48135L7.6868 1.27529Z" fill="#7D92FE"/>
</g>
<defs>
<clipPath id="clip0_998_3614">
<rect width="16" height="16" fill="white"/>
</clipPath>
</defs>
</svg>
