<svg xmlns="http://www.w3.org/2000/svg" viewBox="0 0 24 24" fill="currentColor">
  <path d="M12.49 10.2722c-.4.0007-.7254.3272-.7247.7272.0007.3994.3264.7232.7247.7225.3987-.0007.7232-.326.7225-.7254-.0007-.3994-.3251-.7251-.7225-.7243zm-3.6972 0c-.4.0007-.7254.3272-.7247.7272.0007.3994.3264.7232.7247.7225.3987-.0007.7232-.326.7225-.7254-.0007-.3994-.3251-.7251-.7225-.7243zm7.3944 0c-.4.0007-.7254.3272-.7247.7272.0007.3994.3264.7232.7247.7225.3987-.0007.7232-.326.7225-.7254-.0007-.3994-.3251-.7251-.7225-.7243zM12 0C5.373 0 0 5.372 0 12c0 6.627 5.373 12 12 12 6.628 0 12-5.373 12-12C24 5.372 18.628 0 12 0zm-.0168 4.8c3.9725 0 7.1943 2.9143 7.1943 6.5108 0 2.3421-1.3675 4.5226-3.6211 5.7354.0796.5983.3154 1.3996.9785 2.2393.0628.0796.0157.1987-.0875.2111-2.3364.284-3.9521-.9453-4.5176-1.5518-5.1944-.4073-8.963-3.3216-8.963-6.6436.0001-3.5965 3.2218-6.5012 7.0064-6.5012z"/>
</svg>
